<?xml version="1.0" encoding="utf-8"?>
<svg version="1.1" xmlns:xlink="http://www.w3.org/1999/xlink" width="12px" height="12px" viewBox="23 372  12 12" xmlns="http://www.w3.org/2000/svg">
  <path d="M 29 372  C 32.36 372  35 374.64  35 378  C 35 381.36  32.36 384  29 384  C 25.64 384  23 381.36  23 378  C 23 374.64  25.64 372  29 372  Z " fill-rule="nonzero" fill="#ffffff" stroke="none" />
  <path d="M 29 372.5  C 32.08 372.5  34.5 374.92  34.5 378  C 34.5 381.08  32.08 383.5  29 383.5  C 25.92 383.5  23.5 381.08  23.5 378  C 23.5 374.92  25.92 372.5  29 372.5  Z " stroke-width="1" stroke="#797979" fill="none" />
  <path d="M 29 381  C 27.32 381  26 379.68  26 378  C 26 376.32  27.32 375  29 375  C 30.68 375  32 376.32  32 378  C 32 379.68  30.68 381  29 381  " fill-rule="nonzero" fill="#797979" stroke="none" />
</svg>