<?xml version="1.0" encoding="utf-8"?>
<svg version="1.1" xmlns:xlink="http://www.w3.org/1999/xlink" width="12px" height="12px" viewBox="23 434  12 12" xmlns="http://www.w3.org/2000/svg">
  <path d="M 29 434  C 32.36 434  35 436.64  35 440  C 35 443.36  32.36 446  29 446  C 25.64 446  23 443.36  23 440  C 23 436.64  25.64 434  29 434  Z " fill-rule="nonzero" fill="#f0f0f0" stroke="none" />
  <path d="M 29 434.5  C 32.08 434.5  34.5 436.92  34.5 440  C 34.5 443.08  32.08 445.5  29 445.5  C 25.92 445.5  23.5 443.08  23.5 440  C 23.5 436.92  25.92 434.5  29 434.5  Z " stroke-width="1" stroke="#797979" fill="none" />
  <path d="M 29 443  C 27.32 443  26 441.68  26 440  C 26 438.32  27.32 437  29 437  C 30.68 437  32 438.32  32 440  C 32 441.68  30.68 443  29 443  " fill-rule="nonzero" fill="#797979" stroke="none" />
</svg>