<?xml version="1.0" encoding="utf-8"?>
<svg version="1.1" xmlns:xlink="http://www.w3.org/1999/xlink" width="12px" height="12px" viewBox="23 275  12 12" xmlns="http://www.w3.org/2000/svg">
  <path d="M 29 275  C 32.36 275  35 277.64  35 281  C 35 284.36  32.36 287  29 287  C 25.64 287  23 284.36  23 281  C 23 277.64  25.64 275  29 275  Z " fill-rule="nonzero" fill="#f0f0f0" stroke="none" />
  <path d="M 29 275.5  C 32.08 275.5  34.5 277.92  34.5 281  C 34.5 284.08  32.08 286.5  29 286.5  C 25.92 286.5  23.5 284.08  23.5 281  C 23.5 277.92  25.92 275.5  29 275.5  Z " stroke-width="1" stroke="#797979" fill="none" />
  <path d="M 29 284  C 27.32 284  26 282.68  26 281  C 26 279.32  27.32 278  29 278  C 30.68 278  32 279.32  32 281  C 32 282.68  30.68 284  29 284  " fill-rule="nonzero" fill="#797979" stroke="none" />
</svg>