<?xml version="1.0" encoding="utf-8"?>
<svg version="1.1" xmlns:xlink="http://www.w3.org/1999/xlink" width="12px" height="12px" viewBox="23 405  12 12" xmlns="http://www.w3.org/2000/svg">
  <path d="M 29 405  C 32.36 405  35 407.64  35 411  C 35 414.36  32.36 417  29 417  C 25.64 417  23 414.36  23 411  C 23 407.64  25.64 405  29 405  Z " fill-rule="nonzero" fill="#ffffff" stroke="none" />
  <path d="M 29 405.5  C 32.08 405.5  34.5 407.92  34.5 411  C 34.5 414.08  32.08 416.5  29 416.5  C 25.92 416.5  23.5 414.08  23.5 411  C 23.5 407.92  25.92 405.5  29 405.5  Z " stroke-width="1" stroke="#797979" fill="none" />
  <path d="M 29 414  C 27.32 414  26 412.68  26 411  C 26 409.32  27.32 408  29 408  C 30.68 408  32 409.32  32 411  C 32 412.68  30.68 414  29 414  " fill-rule="nonzero" fill="#797979" stroke="none" />
</svg>