<?xml version="1.0" encoding="utf-8"?>
<svg version="1.1" xmlns:xlink="http://www.w3.org/1999/xlink" width="12px" height="12px" viewBox="23 496  12 12" xmlns="http://www.w3.org/2000/svg">
  <path d="M 29 496  C 32.36 496  35 498.64  35 502  C 35 505.36  32.36 508  29 508  C 25.64 508  23 505.36  23 502  C 23 498.64  25.64 496  29 496  Z " fill-rule="nonzero" fill="#ffffff" stroke="none" />
  <path d="M 29 496.5  C 32.08 496.5  34.5 498.92  34.5 502  C 34.5 505.08  32.08 507.5  29 507.5  C 25.92 507.5  23.5 505.08  23.5 502  C 23.5 498.92  25.92 496.5  29 496.5  Z " stroke-width="1" stroke="#797979" fill="none" />
  <path d="M 29 505  C 27.32 505  26 503.68  26 502  C 26 500.32  27.32 499  29 499  C 30.68 499  32 500.32  32 502  C 32 503.68  30.68 505  29 505  " fill-rule="nonzero" fill="#797979" stroke="none" />
</svg>